<svg width="33" height="33" viewBox="0 0 33 33" fill="none" xmlns="http://www.w3.org/2000/svg">
<g clip-path="url(#clip0_2033_575)">
<path d="M27.1074 11.7856C27.1074 18.857 16.5002 27.107 16.5002 27.107C16.5002 27.107 5.89307 18.857 5.89307 11.7856C5.89307 6.00825 10.7229 1.17847 16.5002 1.17847C22.2776 1.17847 27.1074 6.00825 27.1074 11.7856Z" stroke="black" stroke-linecap="round" stroke-linejoin="round"/>
<path d="M16.5001 15.3214C18.4528 15.3214 20.0358 13.7384 20.0358 11.7857C20.0358 9.83299 18.4528 8.25 16.5001 8.25C14.5473 8.25 12.9644 9.83299 12.9644 11.7857C12.9644 13.7384 14.5473 15.3214 16.5001 15.3214Z" stroke="black" stroke-linecap="round" stroke-linejoin="round"/>
<path d="M26.1109 23.5713H28.2859L31.8216 31.8213H1.17871L4.71443 23.5713H6.88936" stroke="black" stroke-linecap="round" stroke-linejoin="round"/>
</g>
<defs>
<clipPath id="clip0_2033_575">
<rect width="33" height="33" fill="white"/>
</clipPath>
</defs>
</svg>
